<svg height="512pt" viewBox="0 0 512 512" width="512pt" xmlns="http://www.w3.org/2000/svg"><path d="m445.933594 495.484375v16.515625h-115.609375v-24.773438h-148.648438v24.773438h-123.871093v-16.515625c0-9.121094 7.394531-16.515625 16.519531-16.515625h33.03125l-23.082031-46.164062c-5.941407-11.886719-3.613282-26.238282 5.78125-35.632813 5.789062-5.789063 13.640624-9.042969 21.828124-9.042969h11.988282l49.546875-74.324218-33.03125-24.773438 49.546875-24.773438h115.613281l49.550781 16.515626-33.03125 33.03125 8.257813 24.777343h-24.777344v-8.257812c0-4.542969-1.816406-8.671875-4.871094-11.644531-3.289062-3.378907-7.992187-5.242188-13.101562-4.8125-8.695313.742187-15.058594 8.65625-15.058594 17.382812v7.332031h-8.257813c-9.082031 0-16.515624 7.429688-16.515624 16.515625v16.515625c0 9.085938 7.433593 16.515625 16.515624 16.515625h127.601563c8.1875 0 16.039063 3.253906 21.828125 9.042969 9.394531 9.394531 11.722656 23.75 5.78125 35.632813l-23.082031 46.164062h33.03125c9.121093 0 16.515625 7.394531 16.515625 16.515625zm0 0" fill="#00973d"/><path d="m214.710938 82.582031h-82.582032v-41.292969c0-22.800781 18.488282-41.289062 41.289063-41.289062 22.804687 0 41.292969 18.488281 41.292969 41.289062zm0 0" fill="#a7d669"/><path d="m346.839844 82.582031h-82.582032v-41.292969c0-22.800781 18.488282-41.289062 41.289063-41.289062 22.804687 0 41.292969 18.488281 41.292969 41.289062zm0 0" fill="#a7d669"/><path d="m132.128906 66.066406-41.289062 41.289063h-7.191406c-27.953126 0-50.617188 22.660156-50.617188 50.613281 0 15.023438 6.671875 29.269531 18.214844 38.886719l31.335937 26.113281c0-41.046875 33.273438-74.324219 74.320313-74.324219h24.773437l66.066407 24.773438 57.804687-24.773438h49.550781c0 13.683594 11.089844 24.773438 24.773438 24.773438h107.355468c13.679688 0 24.773438-11.089844 24.773438-24.773438v-66.0625c0-9.121093-7.394531-16.515625-16.515625-16.515625h-49.550781c-9.121094 0-16.515625 7.394532-16.515625 16.515625 0-9.121093-7.390625-16.515625-16.515625-16.515625h-49.546875c-9.121094 0-16.515625 7.394532-16.515625 16.515625h-82.582032v-16.515625h-49.546874v16.515625h-82.582032zm0 0" fill="#00973d"/><path d="m82.582031 222.96875c0-41.046875 33.273438-74.324219 74.320313-74.324219h24.773437c0 25.6875 13.234375 49.5625 35.015625 63.175781l31.050782 19.40625h66.0625l16.519531 16.515626h148.644531c0 18.242187-14.789062 33.03125-33.03125 33.03125h-90.839844l-49.550781-8.257813h-115.613281l-49.546875 16.519531-29.125-16.644531c-17.734375-10.136719-28.679688-28.996094-28.679688-49.421875zm0 0" fill="#a7d669"/><path d="m412.902344 123.871094c0 9.121094-7.394532 16.515625-16.515625 16.515625-9.121094 0-16.515625-7.394531-16.515625-16.515625s7.394531-16.515625 16.515625-16.515625c9.121093 0 16.515625 7.394531 16.515625 16.515625zm0 0" fill="#fdcf00"/><path d="m478.96875 123.871094c0 9.121094-7.394531 16.515625-16.515625 16.515625-9.125 0-16.519531-7.394531-16.519531-16.515625s7.394531-16.515625 16.519531-16.515625c9.121094 0 16.515625 7.394531 16.515625 16.515625zm0 0" fill="#fdcf00"/><path d="m181.675781 148.644531c0 25.6875 13.234375 49.5625 35.015625 63.175781l31.050782 19.40625h66.0625l-.15625-.800781c-5.386719-26.929687-8.101563-54.320312-8.101563-81.78125l-57.804687 24.773438zm0 0" fill="#fa4c52"/><g fill="#efe1b4"><path d="m379.871094 173.417969 16.515625 41.292969 16.515625-41.292969zm0 0"/><path d="m462.453125 173.417969 16.515625 41.292969 16.515625-41.292969zm0 0"/><path d="m454.195312 247.742188-16.519531-33.03125-16.515625 33.03125zm0 0"/><path d="m371.613281 247.742188-16.515625-33.03125-16.515625 33.03125zm0 0"/></g><path d="m140.386719 289.03125 33.03125 24.773438-49.546875 74.324218v19.351563c0 29.910156 11.882812 58.59375 33.03125 79.746093h99.097656c-21.152344-21.152343-33.03125-49.835937-33.03125-79.746093 0-12.863281 1.40625-25.683594 4.195312-38.242188l12.320313-55.433593-24.777344-41.289063h-24.773437zm0 0" fill="#abcd00"/><path d="m57.804688 289.03125v-16.515625c0-9.121094-7.390626-16.515625-16.515626-16.515625-9.121093 0-16.515624 7.394531-16.515624 16.515625v8.257813h-8.257813c-9.121094 0-16.515625 7.394531-16.515625 16.515624v24.777344c0 9.121094 7.394531 16.515625 16.515625 16.515625h33.03125l24.777344 16.515625h74.320312l24.773438-41.289062h-74.320313zm0 0" fill="#37803d"/><path d="m371.613281 330.324219v41.289062c0 9.082031-7.433593 16.515625-16.515625 16.515625h-90.839844c-9.082031 0-16.515624-7.433594-16.515624-16.515625v-16.515625c0-9.085937 7.433593-16.519531 16.515624-16.519531h8.257813v-8.257813c0-9.082031 7.433594-16.515624 16.515625-16.515624 4.542969 0 8.671875 1.816406 11.644531 4.871093 3.054688 2.972657 4.871094 7.101563 4.871094 11.644531v8.257813h24.777344l-8.257813-24.773437h33.03125c9.082032 0 16.515625 7.433593 16.515625 16.519531zm0 0" fill="#37803d"/><path d="m506.960938 372.933594c3.304687 10.074218 5.039062 20.644531 5.039062 31.214844v25.269531c0 36.5-29.5625 66.066406-66.066406 66.066406 0-9.085937-7.429688-16.515625-16.515625-16.515625h-33.03125l24.773437-49.550781h8.257813c9.085937 0 17.34375-3.714844 23.371093-9.664063.082032-.082031.164063-.246094.25-.328125 5.863282-5.945312 9.414063-14.121093 9.414063-23.039062-.746094-5.367188-1.074219-10.652344-.910156-15.9375v-1.488281c.414062-10.898438 2.726562-21.554688 6.6875-31.546876.578125-1.402343 1.15625-2.804687 1.734375-4.128906 6.691406-14.699218 17.09375-27.746094 30.554687-37.738281.332031-.332031.746094-.660156 1.15625-.910156l10.324219-7.347657-3.054688 7.679688c-4.707031 11.808594-7.101562 24.195312-7.101562 36.75 0 10.488281 1.734375 21.058594 5.117188 31.214844zm0 0" fill="#37803d"/><path d="m181.675781 57.804688c0 13.683593-11.089843 24.777343-24.773437 24.777343-13.679688 0-24.773438-11.09375-24.773438-24.777343 0-13.679688 11.09375-24.773438 24.773438-24.773438 13.683594 0 24.773437 11.09375 24.773437 24.773438zm0 0" fill="#fff"/><path d="m173.417969 66.066406c0 9.121094-7.394531 16.515625-16.515625 16.515625s-16.515625-7.394531-16.515625-16.515625c0-9.125 7.394531-16.519531 16.515625-16.519531s16.515625 7.394531 16.515625 16.519531zm0 0" fill="#493c35"/><path d="m156.902344 57.804688c0 4.5625-3.695313 8.261718-8.257813 8.261718-4.558593 0-8.257812-3.699218-8.257812-8.261718 0-4.558594 3.699219-8.257813 8.257812-8.257813 4.5625 0 8.257813 3.699219 8.257813 8.257813zm0 0" fill="#fff"/><path d="m165.160156 78.453125c0 2.277344-1.847656 4.128906-4.128906 4.128906s-4.128906-1.851562-4.128906-4.128906c0-2.28125 1.847656-4.128906 4.128906-4.128906s4.128906 1.847656 4.128906 4.128906zm0 0" fill="#fff"/><path d="m123.871094 99.097656c0 13.679688-11.09375 24.773438-24.773438 24.773438-13.683594 0-24.773437-11.09375-24.773437-24.773438 0-13.683594 11.089843-24.773437 24.773437-24.773437 13.679688 0 24.773438 11.089843 24.773438 24.773437zm0 0" fill="#fa4c52"/><path d="m313.804688 57.804688c0 13.683593-11.089844 24.777343-24.773438 24.777343-13.679688 0-24.773438-11.09375-24.773438-24.777343 0-13.679688 11.09375-24.773438 24.773438-24.773438 13.683594 0 24.773438 11.09375 24.773438 24.773438zm0 0" fill="#fff"/><path d="m462.453125 396.386719c0 8.917969-3.554687 17.09375-9.414063 23.039062l-23.621093-31.296875 32.125-7.679687c-.164063 5.285156.164062 10.570312.910156 15.9375zm0 0" fill="#a7d669"/><path d="m437.675781 346.839844 30.554688.578125c-3.960938 9.992187-6.273438 20.644531-6.6875 31.546875zm0 0" fill="#a7d669"/><path d="m500.519531 305.546875c-13.457031 9.992187-23.863281 23.039063-30.554687 37.742187l-7.511719-37.742187zm0 0" fill="#a7d669"/><path d="m305.546875 66.066406c0 9.121094-7.394531 16.515625-16.515625 16.515625s-16.515625-7.394531-16.515625-16.515625c0-9.125 7.394531-16.519531 16.515625-16.519531s16.515625 7.394531 16.515625 16.519531zm0 0" fill="#493c35"/><path d="m289.03125 57.804688c0 4.5625-3.695312 8.261718-8.257812 8.261718-4.558594 0-8.257813-3.699218-8.257813-8.261718 0-4.558594 3.699219-8.257813 8.257813-8.257813 4.5625 0 8.257812 3.699219 8.257812 8.257813zm0 0" fill="#fff"/><path d="m297.289062 78.453125c0 2.277344-1.847656 4.128906-4.128906 4.128906s-4.128906-1.851562-4.128906-4.128906c0-2.28125 1.847656-4.128906 4.128906-4.128906s4.128906 1.847656 4.128906 4.128906zm0 0" fill="#fff"/><path d="m421.160156 499.613281c0-6.84375 5.546875-12.386719 12.386719-12.386719h12.386719c13.683594 0 24.777344 11.089844 24.777344 24.773438h-37.164063c-6.839844 0-12.386719-5.546875-12.386719-12.386719zm0 0" fill="#efe1b4"/><path d="m74.324219 499.613281c0-6.84375-5.546875-12.386719-12.390625-12.386719h-12.386719c-13.679687 0-24.773437 11.089844-24.773437 24.773438h37.160156c6.84375 0 12.390625-5.546875 12.390625-12.386719zm0 0" fill="#efe1b4"/></svg>